<svg xmlns="http://www.w3.org/2000/svg" id="Layer_2" data-name="Layer 2" viewBox="0 0 2000.87 735.46">
  <defs>
    <style>
      .cls-1{fill:none;stroke:#231f20;stroke-miterlimit:10;stroke-width:11px}
    </style>
  </defs>
  <g id="Layer_1-2" data-name="Layer 1">
    <path d="M1890.67 4.72c17.53 10.52 108.74 67.7 93.3 163.5-2.69 16.71-17.78 110.33-138.63 164.75-124.67 56.14-323.56 53.31-361.54-11.29-25.72-43.76 25.08-111.25 101.12-144.68 115.43-50.75 252.86-7.11 312.87 25.49 7.24 3.93 133.39 74.72 87.59 159.82-48.71 90.5-257.91 134.04-376.51 145.39-218.14 20.88-258.99-13.1-516.46-84.43-49.07-13.59-435.2-131.73-789.24 14.27C180.78 488.02 91.32 603.18 91.32 729.07M90.41 732.03l75.06-94.1M97.99 731.12 3.4 656.69" class="cls-1"/>
  </g>
</svg>