<svg width="1728" height="1117" viewBox="0 0 1728 1117" fill="none" xmlns="http://www.w3.org/2000/svg">
<path fill-rule="evenodd" clip-rule="evenodd" d="M1728 0H0V1117H1728V0ZM1475.56 812V1087.66H1550.4V996.673H1576.3L1624.7 1087.66H1706L1650.02 984.884C1664.32 978.022 1675.53 968.267 1683.66 955.62C1692.45 942.07 1696.85 925.424 1696.85 905.683C1696.85 886.12 1692.58 869.34 1684.06 855.342C1675.54 841.343 1663.6 830.62 1648.26 823.172C1632.91 815.724 1615.01 812 1594.55 812H1475.56ZM1550.4 938.525H1576.78C1585.58 938.525 1593.07 937.448 1599.26 935.295C1605.54 933.052 1610.34 929.507 1613.66 924.661C1617.07 919.816 1618.78 913.49 1618.78 905.683C1618.78 897.786 1617.07 891.37 1613.66 886.435C1610.34 881.409 1605.54 877.73 1599.26 875.397C1593.07 872.974 1585.58 871.763 1576.78 871.763H1550.4V938.525ZM1239.77 1087.66V812H1438.45V872.302H1314.61V919.681H1428.22V979.983H1314.61V1027.36H1437.91V1087.66H1239.77ZM972.019 812V872.302H1054.93V1087.66H1128.7V872.302H1211.61V812H972.019ZM784.283 1087.66H703.522L794.513 812H896.81L987.801 1087.66H907.04L891.111 1034.9H800.212L784.283 1087.66ZM846.738 887.915L874.207 978.906H817.116L844.584 887.915H846.738ZM319 812L400.299 1087.66H471.907L518.749 933.68H520.902L567.743 1087.66H639.352L720.651 812H637.198L599.509 982.136H597.356L552.668 812H486.983L442.295 981.598H440.141L402.453 812H319Z" fill="white"/>
</svg>
